<?xml version="1.0" encoding="UTF-8"?>
<svg id="_图层_1" data-name="图层 1" xmlns="http://www.w3.org/2000/svg" xmlns:xlink="http://www.w3.org/1999/xlink" viewBox="0 0 180 180">
  <defs>
    <style>
      .cls-1, .cls-2 {
        stroke-width: 0px;
      }

      .cls-2 {
        fill: url(#_未命名的渐变_19);
      }
    </style>
    <linearGradient id="_未命名的渐变_19" data-name="未命名的渐变 19" x1="26.44" y1="153.56" x2="153.56" y2="26.44" gradientUnits="userSpaceOnUse">
      <stop offset="0" stop-color="#000"/>
      <stop offset=".19" stop-color="#030000"/>
      <stop offset=".35" stop-color="#0d0100"/>
      <stop offset=".49" stop-color="#1e0200"/>
      <stop offset=".62" stop-color="#350400"/>
      <stop offset=".75" stop-color="#540600"/>
      <stop offset=".87" stop-color="#7a0900"/>
      <stop offset=".99" stop-color="#a60c00"/>
      <stop offset="1" stop-color="#ab0d00"/>
    </linearGradient>
  </defs>
  <g id="_-" data-name="-">
    <g>
      <path class="cls-1" d="M90,0C40.5,0,0,40.5,0,90s40.5,90,90,90,90-40.5,90-90S139.5,0,90,0ZM90,162c-39.6,0-72-32.4-72-72S50.4,18,90,18c39.6,0,72,32.4,72,72s-32.4,72-72,72Z"/>
      <path class="cls-1" d="M24.14,98.78v-17.56h131.72v17.56H24.14Z"/>
    </g>
    <g>
      <path class="cls-2" d="M90,0C40.5,0,0,40.5,0,90s40.5,90,90,90,90-40.5,90-90S139.5,0,90,0ZM90,162c-39.6,0-72-32.4-72-72S50.4,18,90,18c39.6,0,72,32.4,72,72s-32.4,72-72,72Z"/>
      <path class="cls-2" d="M24.14,98.78v-17.56h131.72v17.56H24.14Z"/>
    </g>
  </g>
</svg>