<?xml version="1.0" encoding="utf-8"?>
<!-- Generator: Adobe Illustrator 28.2.0, SVG Export Plug-In . SVG Version: 6.00 Build 0)  -->
<svg version="1.1" id="图层_1" xmlns="http://www.w3.org/2000/svg" xmlns:xlink="http://www.w3.org/1999/xlink" x="0px" y="0px"
	 viewBox="0 0 200 200" style="enable-background:new 0 0 200 200;" xml:space="preserve">
<g>
	<g>
		<path d="M74.7,79.2v75c0.1,2.2-1.7,4.1-3.9,4.2c-0.1,0-0.2,0-0.3,0H62c-2.2,0.1-4.1-1.6-4.2-3.8c0-0.1,0-0.2,0-0.3v-75
			c-0.1-2.2,1.7-4.1,3.9-4.2c0.1,0,0.2,0,0.3,0h8.4c2.2-0.1,4.1,1.6,4.2,3.8C74.6,78.9,74.6,79.1,74.7,79.2L74.7,79.2L74.7,79.2z
			 M108.4,79.2v75c0.1,2.2-1.7,4.1-3.9,4.2c-0.1,0-0.2,0-0.3,0h-8.4c-2.2,0.1-4.1-1.6-4.2-3.8c0-0.1,0-0.2,0-0.3v-75
			c-0.1-2.2,1.7-4.1,3.9-4.2c0.1,0,0.2,0,0.3,0h8.4c2.2-0.1,4.1,1.6,4.2,3.8C108.4,78.9,108.4,79.1,108.4,79.2L108.4,79.2z
			 M142.2,79.2v75c0.1,2.2-1.7,4.1-3.9,4.2c-0.1,0-0.2,0-0.3,0h-8.4c-2.2,0.1-4.1-1.6-4.2-3.8c0-0.1,0-0.2,0-0.3v-75
			c-0.1-2.2,1.7-4.1,3.9-4.2c0.1,0,0.2,0,0.3,0h8.4c2.2-0.1,4.1,1.6,4.2,3.8C142.2,78.9,142.2,79.1,142.2,79.2L142.2,79.2z
			 M159.1,173.4V50H40.9v123.4c0,3.2,1,6.2,2.8,8.8c0.7,0.7,1.1,1.1,1.4,1.1h109.7c0.3,0,0.7-0.4,1.4-1.1
			C158.1,179.7,159.1,176.6,159.1,173.4L159.1,173.4z M70.5,33.3h59.1l-6.3-15.2c-0.5-0.7-1.3-1.2-2.2-1.4H79.2
			c-0.9,0.2-1.7,0.7-2.2,1.4L70.5,33.3L70.5,33.3z M192.9,37.5v8.3c0.1,2.2-1.7,4.1-3.9,4.2c-0.1,0-0.2,0-0.3,0H176v123.4
			c0,7.2-2.1,13.4-6.2,18.7c-4.1,5.2-9.1,7.9-14.9,7.9H45.1c-5.8,0-10.8-2.5-14.9-7.6S24,181.2,24,174V50H11.4
			c-2.2,0.1-4.1-1.6-4.2-3.8c0-0.1,0-0.2,0-0.3v-8.3c-0.1-2.2,1.7-4.1,3.9-4.2c0.1,0,0.2,0,0.3,0h40.8l9.2-21.7
			c1.3-3.2,3.7-5.9,7.1-8.2C71.9,1.1,75.4,0,78.9,0h42.2c3.5,0,7,1.1,10.4,3.4s5.8,5,7.1,8.2l9.2,21.7h40.8c2.2-0.1,4.1,1.6,4.2,3.8
			C192.9,37.3,192.9,37.4,192.9,37.5z"/>
	</g>
</g>
</svg>
