<svg t="1724552738231" class="icon" viewBox="0 0 1024 1024" version="1.1" xmlns="http://www.w3.org/2000/svg" p-id="4244" width="200" height="200"><path d="M469.333333 426.666667H384v128H256v85.333333h128v128h85.333333v-128h128v-85.333333h-128z" p-id="4245"></path><path d="M170.666667 938.666667h512c47.061333 0 85.333333-38.272 85.333333-85.333334V341.333333c0-47.061333-38.272-85.333333-85.333333-85.333333H170.666667c-47.061333 0-85.333333 38.272-85.333334 85.333333v512c0 47.061333 38.272 85.333333 85.333334 85.333334zM170.666667 341.333333h512l0.085333 512H170.666667V341.333333z" p-id="4246"></path><path d="M853.333333 85.333333H341.333333v85.333334h512v512h85.333334V170.666667c0-47.061333-38.272-85.333333-85.333334-85.333334z" p-id="4247"></path></svg>