<?xml version="1.0" encoding="UTF-8"?>
<svg id="_图层_1" data-name="图层 1" xmlns="http://www.w3.org/2000/svg" viewBox="0 0 180 180">
  <defs>
    <style>
      .cls-1 {
        fill: #fff;
        stroke-width: 0px;
      }
    </style>
  </defs>
  <path class="cls-1" d="M69.17,29.58c-21.86,0-39.58,17.72-39.58,39.58v41.67c0,21.86,17.72,39.58,39.58,39.58h41.67c21.86,0,39.58-17.72,39.58-39.58h0v-4.17c0-5.75,4.66-10.42,10.42-10.42s10.42,4.66,10.42,10.42v4.17c0,33.37-27.05,60.42-60.42,60.42h-41.67c-33.37,0-60.42-27.05-60.42-60.42h0v-41.67c0-33.37,27.05-60.42,60.42-60.42h4.17c5.75,0,10.42,4.66,10.42,10.42,0,5.75-4.66,10.42-10.42,10.42h-4.17ZM150.42,39.62v29.55c0,5.75,4.66,10.42,10.42,10.42s10.42-4.66,10.42-10.42V27.5c0-10.36-8.39-18.75-18.75-18.75h-41.67c-5.75,0-10.42,4.66-10.42,10.42,0,5.75,4.66,10.42,10.42,10.42h13.35c-5.17,3-10.62,6.56-15.69,10.62-12.47,9.98-18.62,22.4-21.67,32.11-1.25,3.99-2.14,8.08-2.67,12.23-.22,1.74-.36,3.49-.41,5.25-.04,5.66,4.7,10.62,10.42,10.62,5.73,0,10.38-4.62,10.42-10.35v-.07l.02-.52c.02-.5.08-1.31.22-2.36.27-2.11.81-5.13,1.89-8.6,2.17-6.96,6.42-15.37,14.79-22.06,7.29-5.83,15.92-10.66,22.92-14.07,2.23-1.09,4.27-2.02,5.99-2.78h0Z"/>
</svg>